<svg id="Calque_1" data-name="Calque 1" xmlns="http://www.w3.org/2000/svg" xmlns:xlink="http://www.w3.org/1999/xlink" viewBox="0 0 264.08 301.88"><defs><style>.cls-1{fill:#afca1c;}.cls-2{fill:#fff8f3;}.cls-3,.cls-6{fill:#116833;}.cls-4,.cls-7{fill:#fff;}.cls-5{fill:url(#Dégradé_sans_nom_7);}.cls-6{font-size:19.4px;}.cls-6,.cls-7{font-family:Poppins-Regular, Poppins;}.cls-7{font-size:16.15px;}.cls-8{fill:none;stroke:#fff;stroke-miterlimit:10;stroke-width:0.75px;}</style><radialGradient id="Dégradé_sans_nom_7" cx="129.61" cy="154.16" r="95.1" gradientUnits="userSpaceOnUse"><stop offset="0.01" stop-color="#b2cd49"/><stop offset="0.27" stop-color="#afcc48"/><stop offset="0.46" stop-color="#a6c946"/><stop offset="0.63" stop-color="#96c342"/><stop offset="0.79" stop-color="#7fbc3d"/><stop offset="0.94" stop-color="#62b235"/><stop offset="1" stop-color="#54ad32"/></radialGradient></defs><title>14 jours garantis</title><polygon class="cls-1" points="128.03 174.13 117.18 176.78 111.8 166.99 100.66 167.92 96.86 157.42 85.72 156.63 85.34 154.67 20.85 273.34 55.4 272.37 73.38 301.88 138.94 181.24 134.88 182.95 128.03 174.13"/><polygon class="cls-2" points="97.87 151.06 31.59 273.04 26.58 273.18 94.07 148.99 97.87 151.06"/><polygon class="cls-2" points="134.08 170.74 67.79 292.71 70.4 296.99 137.88 172.8 134.08 170.74"/><polygon class="cls-1" points="108.93 174.13 119.78 176.78 125.16 166.99 136.3 167.92 140.1 157.42 151.24 156.63 151.62 154.67 216.11 273.34 181.56 272.37 163.58 301.88 98.02 181.24 102.08 182.95 108.93 174.13"/><polygon class="cls-2" points="139.09 151.06 205.38 273.04 210.38 273.18 142.89 148.99 139.09 151.06"/><polygon class="cls-2" points="102.88 170.74 169.17 292.71 166.56 296.99 99.08 172.8 102.88 170.74"/><path class="cls-3" d="M247.08,171.32c-.86,5.9-15.18,8.68-16.89,14.2s8.44,16.07,5.87,21.27-17.1,3.51-20.47,8.27,3.06,17.86-1,22-17.32-2-22,1.54-2.56,17.91-7.77,20.65-15.83-7.21-21.41-5.32-8,16.25-13.77,17.24-12.77-11.77-18.71-11.71c-5.78.06-12.53,13-18.43,12.13s-8.68-15.18-14.2-16.89C92.58,253,82.18,263.18,77,260.6s-3.51-17.09-8.26-20.46-17.86,3.05-22-1,2-17.32-1.54-22-17.91-2.57-20.65-7.77,7.21-15.83,5.32-21.41S13.55,180,12.56,174.14s11.77-12.78,11.7-18.71c-.05-5.78-13-12.54-12.12-18.44s15.18-8.68,16.89-14.2-8.44-16.06-5.87-21.27S40.25,98,43.62,93.25s-3-17.85,1-22,17.32,2,22-1.54S69.24,51.77,74.44,49s15.84,7.21,21.42,5.31,7.94-16.25,13.77-17.24,12.78,11.77,18.7,11.71,12.55-13,18.44-12.12,8.69,15.17,14.2,16.89c5.67,1.76,16.07-8.44,21.28-5.86s3.5,17.08,8.26,20.46,17.86-3.06,22.05,1-2,17.31,1.53,22S232,93.79,234.74,99s-7.21,15.84-5.32,21.41,16.26,7.95,17.24,13.78S234.9,147,235,152.88,247.94,165.43,247.08,171.32Z" transform="translate(-12.1 -36.65)"/><path class="cls-4" d="M225.25,168.13c-6.89,47.15-47.95,82.69-95.52,82.69A96.74,96.74,0,0,1,34,140.19C40.87,93,81.93,57.5,129.49,57.5a98.11,98.11,0,0,1,14.09,1A96.77,96.77,0,0,1,225.25,168.13Z" transform="translate(-12.1 -36.65)"/><path class="cls-5" d="M223.7,167.91c-6.77,46.38-47.17,81.35-94,81.35A95.16,95.16,0,0,1,35.52,140.41c6.78-46.38,47.17-81.36,94-81.36A95.22,95.22,0,0,1,223.7,167.91Z" transform="translate(-12.1 -36.65)"/><path class="cls-4" d="M61,104.83l4.51-5.45c2.13-2.58,4.78-3,6.92-1.21,2.31,1.9,2.38,4.57.25,7.15l-2.6,3.15L74.32,112l-1.89,2.29Zm7.18,2.07L70.6,104c1-1.24,1.27-2.4,0-3.47-1-.87-2.2-.75-3.37.67l-2.43,2.94Z" transform="translate(-12.1 -36.65)"/><path class="cls-4" d="M79.89,97.38,83.63,102l-2.28,1.85L72,92.32l5.72-4.65c2.43-2,4.9-1.92,6.52.08a3.4,3.4,0,0,1,.29,4.3c.69-.24,2.21-.66,3.87,1.39l.45.56a13.86,13.86,0,0,0,2,2.15l-2.36,1.91a10.61,10.61,0,0,1-2.12-2.24L86,95.44c-1.09-1.34-2-1.45-3.67-.07Zm-1.51-1.85,2.92-2.37c1.42-1.16,1.64-2.22.75-3.32s-1.94-1-3.32.09l-3,2.39Z" transform="translate(-12.1 -36.65)"/><path class="cls-4" d="M101.79,82c1.87,3.7,1.16,8.13-3.3,10.38-4.2,2.12-8.21.29-10.17-3.58A7.42,7.42,0,0,1,91.64,78.5C95.91,76.34,100,78.35,101.79,82Zm-10.7,5.35c1.32,2.62,3.76,4.1,6.42,2.76s2.72-4.28,1.52-6.67-3.63-4-6.37-2.67S89.87,84.92,91.09,87.33Z" transform="translate(-12.1 -36.65)"/><path class="cls-4" d="M103.06,73.94,114,71l.65,2.43-8.08,2.14,1,3.71,7.53-2,.65,2.45-7.53,2,1.53,5.75-2.86.76Z" transform="translate(-12.1 -36.65)"/><path class="cls-4" d="M120.46,70.29,122.33,85l-2.94.37-1.86-14.72Z" transform="translate(-12.1 -36.65)"/><path class="cls-4" d="M128.79,72.31l-5.09-.08,0-2.51,13.14.19,0,2.51-5.08-.07-.17,12.32-3,0Z" transform="translate(-12.1 -36.65)"/><path class="cls-4" d="M149.83,80.72l-7.9-1.57L141.16,83l8.76,1.74-.84,2.41-11.32-2.25,2.89-14.55,11.23,2.23-.49,2.47-8.33-1.65-.64,3.25,7.9,1.57Z" transform="translate(-12.1 -36.65)"/><path class="cls-4" d="M151,85.36l12.13-5.89-7.85-3.27.95-2.28,11.31,4.72-.93,2.24-11.94,5.79,8.67,3.61L162,92.42l-11.94-5Z" transform="translate(-12.1 -36.65)"/><path class="cls-4" d="M176.59,83.94l4.87,3.81c3.68,2.89,3.76,7,1.32,10.14-2.93,3.74-7.3,4-10.52,1.5l-4.82-3.77Zm-5.31,11.57,2.15,1.68c2.41,1.9,4.84,1.38,6.83-1.16,1.83-2.34,1.69-4.76-.63-6.62l-2.21-1.73Z" transform="translate(-12.1 -36.65)"/><path class="cls-4" d="M191.24,109.46,186,103.33l-3,2.56,5.78,6.8-2.15,1.36-7.47-8.78,11.31-9.61,7.4,8.72L196,106l-5.49-6.46L188,101.7l5.21,6.13Z" transform="translate(-12.1 -36.65)"/><path class="cls-3" d="M89,120.42V106.65h22.8v63.23H97.15V120.42Z" transform="translate(-12.1 -36.65)"/><path class="cls-3" d="M121.75,158.62v-12l26-39.15h15.71V145.8h6.75v12.82h-6.75v11.26H149.4V158.62Zm28.64-34.82-13.83,22h13.83Z" transform="translate(-12.1 -36.65)"/><rect class="cls-4" x="49.38" y="159.71" width="137.64" height="1.08"/><text class="cls-6" transform="translate(52.27 150.51) scale(0.95 1)">jours Garantis</text><text class="cls-7" transform="translate(72.85 179.32) scale(0.95 1)">Satisfait ou <tspan x="2.66" y="14.98">remboursé</tspan></text><circle class="cls-8" cx="117.51" cy="117.51" r="90.48"/><path class="cls-4" d="M242.6,232a5.7,5.7,0,0,1,1.65.13,7.75,7.75,0,0,1,1.49.45l.13.05a.09.09,0,0,0,.13-.06.91.91,0,0,0,.07-.14c.45-.92.91-1.84,1.45-2.72a12.2,12.2,0,0,1,2-2.55,5.14,5.14,0,0,1,2.08-1.27l.39-.1c.05,0,.1,0,.14,0s0,.07-.06.09a12.36,12.36,0,0,0-2.55,3.32,19.45,19.45,0,0,0-1.7,4.3l0,.14a.14.14,0,0,0,0,.16l.08.07a8.15,8.15,0,0,1,2.78,4.7,8.33,8.33,0,0,1,.14,1.93,8.15,8.15,0,0,1-.69,2.95,8,8,0,0,1-1.95,2.7,7.76,7.76,0,0,1-2.15,1.43.27.27,0,0,0-.19.29c0,.42,0,.84,0,1.25,0,.06,0,.15,0,.18s-.11,0-.15-.09c-.33-.31-.63-.64-.93-1a.34.34,0,0,0-.38-.12,7.51,7.51,0,0,1-1.7.19.41.41,0,0,1-.21,0,8.15,8.15,0,0,0,5.29-2.2,8,8,0,0,0,2.4-4.2,8.06,8.06,0,0,0-2.49-7.77c-.06,0-.05.08-.06.13a28,28,0,0,0-.53,3.15c-.06.64-.1,1.29-.14,1.93,0,.85,0,1.7,0,2.56,0,.53,0,1.07.08,1.6s.08,1,.14,1.49a.14.14,0,0,1-.1.17l-1.19.43c-.11,0-.13,0-.15-.1s-.08-.45-.12-.68c-.15-.95-.31-1.9-.46-2.84-.06-.36-.11-.72-.18-1.07,0-.16,0-.16-.18-.13l-.68.14c-.16,0-.17,0-.21-.13-.17-.8-.33-1.61-.5-2.41a.29.29,0,0,1,0-.24,23,23,0,0,0,1.14-2.34c.41-.91.79-1.83,1.21-2.73.09-.2.09-.2-.11-.29a8.11,8.11,0,0,0-2.45-.71C243,232,242.81,232,242.6,232Zm5.06.65,0,0-.59.29c-.1,0-.1.05,0,.15l.3.44s0,.08.1.07Zm1.78-3.91c-.23.06-.4.14-.57.2a.08.08,0,0,0-.06.12l.19.54A6.93,6.93,0,0,0,249.44,228.69Zm-1.6,3.42a3.7,3.7,0,0,0,.33-.87l-.53.24a.09.09,0,0,0,0,.11A4.11,4.11,0,0,0,247.84,232.11Zm.93-2.15,0,0-.52.24c-.07,0-.08.08,0,.15l.18.4s0,.06,0,.06.05,0,.06-.07Zm-1.67,4.87h0l.24-.77a.08.08,0,0,0,0-.08s-.05,0-.07,0l-.43.24a.08.08,0,0,0-.05.11C246.91,234.49,247,234.66,247.1,234.83Zm-.12.42s0-.07,0-.09a.08.08,0,0,0-.08,0l-.36.28c-.05,0-.07.09,0,.14s.19.26.29.38a.05.05,0,0,0,.07,0,.06.06,0,0,0,0-.06C246.91,235.73,247,235.49,247,235.25Zm2.62-7a2.94,2.94,0,0,0,.46-.79,4.75,4.75,0,0,0-.54.14.09.09,0,0,0-.07.13C249.5,227.94,249.53,228.11,249.6,228.29Z" transform="translate(-12.1 -36.65)"/><path class="cls-4" d="M240.8,231.55l0,1c0,.65,0,1.31,0,2a16.69,16.69,0,0,0,.29,2.91,5.25,5.25,0,0,0,.32,1,1.71,1.71,0,0,0,.44.65.59.59,0,0,0,.5.16c.17,0,.17,0,.17.16,0,1,0,2,0,3,0,.32,0,.64,0,.95s0,.2.18.14l.89-.32c.16-.06.19,0,.2.13,0,.48.08,1,.11,1.45s.11,1.24.16,1.85l.06.82s0,.06,0,.07-.05,0-.07,0l-.58-.71a22.35,22.35,0,0,1-1.72-2.48,16.61,16.61,0,0,1-1.7-3.86,12.36,12.36,0,0,1-.48-2.61,12.23,12.23,0,0,1,0-1.6,11.78,11.78,0,0,1,.46-2.64,12.49,12.49,0,0,1,.69-1.79A.22.22,0,0,1,240.8,231.55Z" transform="translate(-12.1 -36.65)"/><path class="cls-4" d="M261.54,233.35a1,1,0,0,1,.59.14.76.76,0,0,1,.31.79,1.56,1.56,0,0,1-.37.79,4.22,4.22,0,0,1-.94.9,4.9,4.9,0,0,1-.79.48,1,1,0,0,1-.38.11.32.32,0,0,1-.29-.1.25.25,0,0,1,0-.36.68.68,0,0,1,.29-.18,4.26,4.26,0,0,0,.81-.38,2.83,2.83,0,0,0,.93-.89.93.93,0,0,0,.13-.31.32.32,0,0,0-.32-.43,1,1,0,0,0-.45.06,3.5,3.5,0,0,0-1.93,1.49,1.61,1.61,0,0,0,0,1.68c.2.39.47.75.7,1.14a3.84,3.84,0,0,1,.22.39,1.3,1.3,0,0,1-.23,1.54,2.59,2.59,0,0,1-1.52.75,2.23,2.23,0,0,1-1.2-.13,1.17,1.17,0,0,1-.77-1.08,1.19,1.19,0,0,1,1.05-1.27h.1a.29.29,0,0,1,.29.22.27.27,0,0,1-.17.3l-.3.16a.49.49,0,0,0-.29.4.62.62,0,0,0,.39.71,1.4,1.4,0,0,0,.73.1,1.92,1.92,0,0,0,1-.38.93.93,0,0,0,.3-1.12,4.49,4.49,0,0,0-.46-.83,8.06,8.06,0,0,1-.48-.8,1.89,1.89,0,0,1,0-1.73,3.27,3.27,0,0,1,.84-1.11,4.46,4.46,0,0,1,1.09-.74A2.53,2.53,0,0,1,261.54,233.35Z" transform="translate(-12.1 -36.65)"/><path class="cls-4" d="M267.43,236.43a1.38,1.38,0,0,0,.37-.05,9.1,9.1,0,0,1,1.46-.18,1,1,0,0,1,.24,0,.26.26,0,0,1,.2.26.27.27,0,0,1-.18.29,1.19,1.19,0,0,1-.32,0,8.2,8.2,0,0,0-1.4.14l-.63.13a.43.43,0,0,0-.27.21,16.08,16.08,0,0,0-1.11,2.38l-.12.33a.15.15,0,0,1,0,.06.22.22,0,0,0,.18,0c.45-.15.9-.29,1.37-.4a4.22,4.22,0,0,1,.94-.09.84.84,0,0,1,.31.08.34.34,0,0,1,.18.19.24.24,0,0,1-.15.33,1,1,0,0,1-.25,0,5.54,5.54,0,0,0-1.34.18,4.71,4.71,0,0,0-1.15.44l-.34.16a.44.44,0,0,1-.6-.46,1.59,1.59,0,0,1,.09-.33,12.86,12.86,0,0,1,.53-1.34,26.81,26.81,0,0,1,1.52-2.91c.3-.48.62-1,.92-1.44l.06-.09a.1.1,0,0,0,0-.15s0,0-.06-.06a.32.32,0,0,1,.16-.5,4.27,4.27,0,0,1,.87-.22,13.74,13.74,0,0,1,1.81-.21,2.76,2.76,0,0,1,.76,0c.18,0,.26.1.28.22a.33.33,0,0,1-.21.35.46.46,0,0,1-.2.05l-.77,0a9.2,9.2,0,0,0-1.66.22c-.06,0-.12,0-.16.06s0,.1,0,.14l0,.11-.09.15c-.41.54-.73,1.13-1.09,1.69A1.19,1.19,0,0,0,267.43,236.43Z" transform="translate(-12.1 -36.65)"/><path class="cls-4" d="M270.29,239.74a1.17,1.17,0,0,0,.19.7.72.72,0,0,0,.86.31,2.15,2.15,0,0,0,.78-.47,6.54,6.54,0,0,0,1.47-1.76.67.67,0,0,1,.12-.16.17.17,0,0,1,.18,0,.15.15,0,0,1,.08.17,1,1,0,0,1-.08.24,5.85,5.85,0,0,1-.69,1.06,5.49,5.49,0,0,1-1.34,1.25,2.12,2.12,0,0,1-.95.33,1.23,1.23,0,0,1-1.24-.78,2.09,2.09,0,0,1-.09-1.08,6,6,0,0,1,.59-1.8,12.54,12.54,0,0,1,1.75-2.63,11.44,11.44,0,0,1,1-1.06,3,3,0,0,1,.83-.54,1.38,1.38,0,0,1,.78-.11.7.7,0,0,1,.56.52,1.54,1.54,0,0,1,0,.74,3.11,3.11,0,0,1-.39.92,5,5,0,0,1-.82,1.05.77.77,0,0,1-.28.19.31.31,0,0,1-.38-.09.27.27,0,0,1,0-.34,1.12,1.12,0,0,1,.35-.37,3.2,3.2,0,0,0,1-1.21,1.47,1.47,0,0,0,.14-.4c0-.17.06-.35-.1-.47s-.3,0-.45,0a3.45,3.45,0,0,0-.81.56,11.11,11.11,0,0,0-2,2.49,7.15,7.15,0,0,0-.92,2.1A5.76,5.76,0,0,0,270.29,239.74Z" transform="translate(-12.1 -36.65)"/><path class="cls-4" d="M242.34,248.25a6,6,0,0,1-1.41-.08,8.09,8.09,0,0,1-4.91-2.74,8.08,8.08,0,0,1-1.83-3.73,7.79,7.79,0,0,1-.14-2,8.17,8.17,0,0,1,4.28-6.75,7.39,7.39,0,0,1,1.15-.52l.07,0s.09-.05.12,0a.13.13,0,0,1,0,.15l-.12.06a8.29,8.29,0,0,0-1.76,1,8,8,0,0,0-3.15,5.26,6.38,6.38,0,0,0-.09,1,8.42,8.42,0,0,0,.2,2.12,8.2,8.2,0,0,0,2.52,4.23,8.13,8.13,0,0,0,4.72,2Z" transform="translate(-12.1 -36.65)"/><path class="cls-4" d="M261.56,240.19c.28-.06.53-.13.78-.17a3.57,3.57,0,0,1,.87-.09,1.29,1.29,0,0,1,.48.1.33.33,0,0,1,.19.45.25.25,0,0,1-.3.18l-.37-.08a2,2,0,0,0-.88.06l-.85.24-.36.09a.39.39,0,0,1-.45-.17.45.45,0,0,1,0-.51,1,1,0,0,1,.16-.19,17.38,17.38,0,0,1,1.42-1.29c.62-.51,1.27-1,1.89-1.48a2.78,2.78,0,0,0,.43-.41.85.85,0,0,0,.18-.57.41.41,0,0,0-.41-.41,1.06,1.06,0,0,0-.63.15,4.15,4.15,0,0,0-.64.46l-.23.17c-.11.07-.17.07-.25,0s-.13-.17-.06-.29a1.26,1.26,0,0,1,.25-.32,2.86,2.86,0,0,1,1.15-.68,1.61,1.61,0,0,1,.72-.07.9.9,0,0,1,.8,1.12,2,2,0,0,1-.53.95,5.15,5.15,0,0,1-.76.64c-.61.46-1.22.92-1.81,1.4A7.38,7.38,0,0,0,261.56,240.19Z" transform="translate(-12.1 -36.65)"/><path class="cls-4" d="M253.23,240.16a.36.36,0,0,0,.18,0,12.47,12.47,0,0,1,1.43-.36l.32-.05a1,1,0,0,1,.3,0,.3.3,0,0,1,.25.32.29.29,0,0,1-.25.31.44.44,0,0,1-.2,0,2.07,2.07,0,0,0-.89.09,5.15,5.15,0,0,0-.82.32,2.6,2.6,0,0,1-.54.17.65.65,0,0,1-.24,0,.39.39,0,0,1-.36-.37,1,1,0,0,1,.05-.38,10.28,10.28,0,0,1,.87-1.91,31.49,31.49,0,0,1,2.18-3.31c.3-.4.59-.82.9-1.21a.74.74,0,0,1,.23-.2.26.26,0,0,1,.3,0,.22.22,0,0,1,.08.29,4.17,4.17,0,0,1-.26.46c-.43.64-.89,1.27-1.34,1.89a18.85,18.85,0,0,0-1.87,3c-.11.24-.21.48-.3.73C253.24,240.08,253.21,240.12,253.23,240.16Z" transform="translate(-12.1 -36.65)"/><path class="cls-4" d="M241.49,235.46a2.58,2.58,0,0,1,.39-1.4,1.52,1.52,0,0,1,.52-.52.8.8,0,0,1,1.07.14,1.46,1.46,0,0,1,.39.83,2.49,2.49,0,0,1-.42,1.91,1.23,1.23,0,0,1-.64.53.85.85,0,0,1-1-.31,1.86,1.86,0,0,1-.34-1Z" transform="translate(-12.1 -36.65)"/><path class="cls-4" d="M268.11,244.43a5.71,5.71,0,0,0-.59.94,8.31,8.31,0,0,0-.66,1.53.67.67,0,0,1-.1.23.23.23,0,0,1-.26.08c-.07,0-.1-.11-.08-.22a1.14,1.14,0,0,1,.09-.3,12.46,12.46,0,0,1,1-1.85c.21-.34.4-.68.63-1a2.69,2.69,0,0,1,.27-.32.37.37,0,0,1,.16-.09c.15,0,.25.06.21.2s-.1.3-.14.46a9.26,9.26,0,0,0-.35,2v.14l0,0c.07-.13.12-.25.18-.38a20.26,20.26,0,0,1,1.13-2.29l.14-.19a.28.28,0,0,1,.21-.12c.12,0,.17.06.15.17a1.05,1.05,0,0,1-.13.26,16,16,0,0,0-.88,1.56,10.76,10.76,0,0,0-.54,1.32c0,.13-.1.26-.16.39a.49.49,0,0,1-.18.2.22.22,0,0,1-.33-.13.77.77,0,0,1,0-.15,6.16,6.16,0,0,1,.05-1.05C267.94,245.35,268,244.89,268.11,244.43Z" transform="translate(-12.1 -36.65)"/><path class="cls-4" d="M264.11,244.43a9.3,9.3,0,0,0-1,1.71,4.93,4.93,0,0,0-.27.73,2,2,0,0,1-.09.22.25.25,0,0,1-.12.11.16.16,0,0,1-.25-.15.71.71,0,0,1,.06-.24,7,7,0,0,1,.49-1.08c.35-.64.72-1.25,1.11-1.86a2.16,2.16,0,0,1,.27-.33l.12-.09a.2.2,0,0,1,.24,0,.18.18,0,0,1,0,.22,5,5,0,0,0-.22.75,9,9,0,0,0-.26,1.64.92.92,0,0,0,0,.16,4,4,0,0,0,.32-.66,17.71,17.71,0,0,1,1-2,1.88,1.88,0,0,1,.12-.18.23.23,0,0,1,.12-.1.2.2,0,0,1,.22,0c.06.06,0,.14,0,.2a2,2,0,0,1-.14.25,13.38,13.38,0,0,0-1.4,2.87,1.94,1.94,0,0,1-.15.36.36.36,0,0,1-.21.19.21.21,0,0,1-.28-.12.38.38,0,0,1,0-.18,6.16,6.16,0,0,1,.05-1.05C263.94,245.35,264,244.89,264.11,244.43Z" transform="translate(-12.1 -36.65)"/><path class="cls-4" d="M270.42,246.72a.34.34,0,0,0-.2.08c-.54.27-.86-.07-.89-.52a1.79,1.79,0,0,1,.19-.78,4.66,4.66,0,0,1,.85-1.26,3.83,3.83,0,0,1,.82-.73,1.08,1.08,0,0,1,.38-.17.44.44,0,0,1,.59.42,1,1,0,0,1-.15.62,2.86,2.86,0,0,1-.57.68.74.74,0,0,1-.22.14.2.2,0,0,1-.23-.07c-.05-.07,0-.14,0-.23l.17-.16a2.61,2.61,0,0,0,.58-.7,1.17,1.17,0,0,0,.09-.24c0-.12-.05-.18-.16-.15a.85.85,0,0,0-.31.17,3.7,3.7,0,0,0-.65.6,4.87,4.87,0,0,0-.92,1.43.89.89,0,0,0-.08.43.23.23,0,0,0,.27.23.63.63,0,0,0,.27-.1,4,4,0,0,0,.52-.4l.23-.19a.14.14,0,0,1,.18,0,.16.16,0,0,1,.08.18.55.55,0,0,1-.12.24,8.94,8.94,0,0,0-.77,1.47l-.12.33a.76.76,0,0,1-.06.16.19.19,0,0,1-.21.1.17.17,0,0,1-.15-.16.59.59,0,0,1,0-.3,3.17,3.17,0,0,1,.32-.73C270.28,247,270.34,246.86,270.42,246.72Z" transform="translate(-12.1 -36.65)"/><path class="cls-4" d="M260.65,245.52a.31.31,0,0,0-.19,0c-.19,0-.37.11-.56.15a.37.37,0,0,0-.23.18c-.21.36-.44.71-.64,1.07a.92.92,0,0,1-.17.22.15.15,0,0,1-.2,0,.18.18,0,0,1-.08-.19.39.39,0,0,1,.06-.17c.11-.23.26-.44.39-.66a1.45,1.45,0,0,0,.1-.18.43.43,0,0,0-.17,0c-.11,0-.18,0-.21-.08a.19.19,0,0,1,.08-.25l.17-.08.4-.14a.4.4,0,0,0,.18-.14c.36-.48.74-1,1.14-1.41a3.78,3.78,0,0,1,.5-.48l.1-.07a.24.24,0,0,1,.27,0,.22.22,0,0,1,.08.24,2.25,2.25,0,0,1-.08.24c-.12.33-.23.65-.32,1,0,.15,0,.15.11.18s.17,0,.18.14a.22.22,0,0,1-.14.21s-.09,0-.15,0-.13,0-.17.14a8.09,8.09,0,0,0-.16.83,3.4,3.4,0,0,0-.08.64v0c0,.13-.06.21-.15.21a.22.22,0,0,1-.22-.17.77.77,0,0,1,0-.3,8.68,8.68,0,0,1,.17-1A.57.57,0,0,0,260.65,245.52Zm-.5-.31a3.27,3.27,0,0,0,.56-.12c.07,0,.09-.08.11-.14s.11-.34.17-.52a1.29,1.29,0,0,0,.1-.35A6.8,6.8,0,0,0,260.15,245.21Z" transform="translate(-12.1 -36.65)"/><path class="cls-4" d="M257.24,245.88l0,0c-.14.34-.31.68-.44,1a.52.52,0,0,1-.06.13.2.2,0,0,1-.24.1.18.18,0,0,1-.11-.22,1.29,1.29,0,0,1,.08-.28,9.76,9.76,0,0,1,.51-1.09.64.64,0,0,0,.08-.3c0-.2,0-.23.21-.29a.13.13,0,0,0,.09-.07l.36-.63c.05-.09,0-.09-.06-.15a.16.16,0,0,1-.07-.23.5.5,0,0,1,.23-.2.47.47,0,0,0,.24-.24.18.18,0,0,1,.27-.09.26.26,0,0,0,.24,0,.86.86,0,0,1,.45,0,.64.64,0,0,1,.5.75,1.37,1.37,0,0,1-.57.9,2.21,2.21,0,0,1-1.23.43c-.18,0-.19,0-.12.18.19.39.36.78.57,1.16a.61.61,0,0,1,.07.14.2.2,0,0,1-.09.23.19.19,0,0,1-.25,0,.7.7,0,0,1-.13-.24c-.15-.32-.3-.63-.44-1C257.29,245.92,257.28,245.89,257.24,245.88Zm1.54-2.11a1.62,1.62,0,0,0-.38.09.34.34,0,0,0-.21.18c-.08.17-.17.34-.26.51s-.15.28-.21.43,0,.1.06.1h.09a1.82,1.82,0,0,0,1-.52.84.84,0,0,0,.24-.43.23.23,0,0,0-.13-.29A.46.46,0,0,0,258.78,243.77Z" transform="translate(-12.1 -36.65)"/><path class="cls-4" d="M255.76,243.92a.25.25,0,0,0-.17,0l-.62.16a.69.69,0,0,1-.2,0,.17.17,0,0,1-.17-.12.18.18,0,0,1,.06-.21.4.4,0,0,1,.16-.08,9.49,9.49,0,0,1,1.81-.35,7.4,7.4,0,0,1,.82,0,.49.49,0,0,1,.2,0,.17.17,0,0,1,0,.31.47.47,0,0,1-.17,0l-1,.07c-.12,0-.2,0-.25.17a2.69,2.69,0,0,1-.28.46,13.82,13.82,0,0,0-1.17,2.34,2.47,2.47,0,0,0-.11.36c0,.08-.07.16-.18.16a.24.24,0,0,1-.2-.18.39.39,0,0,1,0-.26,5.88,5.88,0,0,1,.31-.79c.22-.47.49-.92.74-1.37l.37-.63A.12.12,0,0,0,255.76,243.92Z" transform="translate(-12.1 -36.65)"/><path class="cls-4" d="M265.25,246.82a1.13,1.13,0,0,1,0-.18,4.62,4.62,0,0,1,.4-1c.29-.51.58-1,.89-1.53a5.89,5.89,0,0,1,.41-.57.6.6,0,0,1,.08-.08.15.15,0,0,1,.19,0,.2.2,0,0,1,.11.19.58.58,0,0,1-.05.14c-.07.1-.13.21-.2.3a14.88,14.88,0,0,0-1.07,1.75,4.36,4.36,0,0,0-.39,1,.36.36,0,0,1,0,.11.18.18,0,0,1-.19.14.22.22,0,0,1-.16-.17A.28.28,0,0,1,265.25,246.82Z" transform="translate(-12.1 -36.65)"/><path class="cls-4" d="M261.25,246.84a1.08,1.08,0,0,1,.05-.29,4.91,4.91,0,0,1,.42-1c.29-.48.55-1,.85-1.45a5.34,5.34,0,0,1,.41-.56l.08-.09a.16.16,0,0,1,.2,0,.2.2,0,0,1,.09.22.35.35,0,0,1-.06.14c-.05.09-.11.18-.17.27a14,14,0,0,0-1.09,1.77,4.18,4.18,0,0,0-.38,1l0,.12c0,.08-.09.14-.18.13a.2.2,0,0,1-.17-.15A.39.39,0,0,1,261.25,246.84Z" transform="translate(-12.1 -36.65)"/><path class="cls-4" d="M251.18,242.2a1,1,0,0,1,.24-.26.06.06,0,0,1,.09,0c.07.07.15.13.21.2s0,.08,0,.08A2.13,2.13,0,0,1,251.18,242.2Z" transform="translate(-12.1 -36.65)"/><path class="cls-4" d="M267.58,242.2a2,2,0,0,1-.49,0c-.07,0-.08,0,0-.09h0C267.27,241.86,267.38,241.88,267.58,242.2Z" transform="translate(-12.1 -36.65)"/><path class="cls-4" d="M274.77,242.2a2,2,0,0,1-.49,0c-.07,0-.08,0,0-.09h0C274.46,241.86,274.56,241.87,274.77,242.2Z" transform="translate(-12.1 -36.65)"/><path class="cls-4" d="M253.92,242.2a2.11,2.11,0,0,1-.5,0s-.06,0,0-.07l0,0C253.6,241.86,253.69,241.87,253.92,242.2Z" transform="translate(-12.1 -36.65)"/><path class="cls-4" d="M254.65,242.21h-.58a.74.74,0,0,1,.24-.28s.07,0,.1,0A1,1,0,0,1,254.65,242.21Z" transform="translate(-12.1 -36.65)"/><path class="cls-4" d="M254.78,242.2A.92.92,0,0,1,255,242a.09.09,0,0,1,.13,0l.18.18s0,.08,0,.08A2.2,2.2,0,0,1,254.78,242.2Z" transform="translate(-12.1 -36.65)"/><path class="cls-4" d="M257.53,242.21h-.59a1.05,1.05,0,0,1,.23-.27.08.08,0,0,1,.11,0A1.34,1.34,0,0,1,257.53,242.21Z" transform="translate(-12.1 -36.65)"/><path class="cls-4" d="M258.24,242.21h-.58a.84.84,0,0,1,.24-.28.08.08,0,0,1,.11,0A1.24,1.24,0,0,1,258.24,242.21Z" transform="translate(-12.1 -36.65)"/><path class="cls-4" d="M264,242.2a2.19,2.19,0,0,1-.51,0s-.06,0,0-.07l0,0C263.67,241.86,263.76,241.87,264,242.2Z" transform="translate(-12.1 -36.65)"/><path class="cls-4" d="M264.69,242.2a2,2,0,0,1-.48,0c-.06,0-.08,0,0-.08l0,0C264.39,241.86,264.51,241.88,264.69,242.2Z" transform="translate(-12.1 -36.65)"/><path class="cls-4" d="M265.42,242.21h-.56a.67.67,0,0,1,.24-.28.05.05,0,0,1,.08,0A.81.81,0,0,1,265.42,242.21Z" transform="translate(-12.1 -36.65)"/><path class="cls-4" d="M268.29,242.18a.23.23,0,0,1-.15,0h-.4c0-.15.15-.21.24-.29s0,0,.08,0A1.05,1.05,0,0,1,268.29,242.18Z" transform="translate(-12.1 -36.65)"/><path class="cls-4" d="M268.46,242.2a.14.14,0,0,1,.06-.11c.2-.22.28-.21.45,0,0,0,0,.08,0,.08A2,2,0,0,1,268.46,242.2Z" transform="translate(-12.1 -36.65)"/><path class="cls-4" d="M269.44,242.21h-.17c-.09,0-.11,0,0-.1s.12-.19.22-.18.18.13.26.2,0,.08,0,.08Z" transform="translate(-12.1 -36.65)"/><path class="cls-4" d="M270.46,242.2a2.11,2.11,0,0,1-.5,0s-.06,0,0-.07l0,0C270.14,241.86,270.24,241.87,270.46,242.2Z" transform="translate(-12.1 -36.65)"/><path class="cls-4" d="M271.18,242.2a2.2,2.2,0,0,1-.51,0,0,0,0,0,1,0-.07l.2-.2a.08.08,0,0,1,.11,0A1.51,1.51,0,0,1,271.18,242.2Z" transform="translate(-12.1 -36.65)"/><path class="cls-4" d="M271.34,242.2a.16.16,0,0,1,.05-.11c.21-.22.28-.21.46,0,0,0,0,.08,0,.08A2,2,0,0,1,271.34,242.2Z" transform="translate(-12.1 -36.65)"/><path class="cls-4" d="M274.06,242.2a3,3,0,0,1-.52,0c-.05,0,0-.05,0-.08l.19-.19a.08.08,0,0,1,.11,0A1,1,0,0,1,274.06,242.2Z" transform="translate(-12.1 -36.65)"/><path class="cls-4" d="M261.25,242.2a1.19,1.19,0,0,1,.23-.26.07.07,0,0,1,.11,0,1.89,1.89,0,0,1,.2.2s0,.07,0,.07A2.82,2.82,0,0,1,261.25,242.2Z" transform="translate(-12.1 -36.65)"/><path class="cls-4" d="M275.49,242.21h-.57a.75.75,0,0,1,.24-.28s.07,0,.1,0A1.08,1.08,0,0,1,275.49,242.21Z" transform="translate(-12.1 -36.65)"/><path class="cls-4" d="M260.55,242.18c.28-.34.27-.34.54,0A.89.89,0,0,1,260.55,242.18Z" transform="translate(-12.1 -36.65)"/><path class="cls-4" d="M259.38,242.21h-.2c-.06,0-.08,0,0-.09h0c.07-.07.13-.19.23-.18s.17.13.25.21,0,.07,0,.07Z" transform="translate(-12.1 -36.65)"/><path class="cls-4" d="M252.18,242.22h0c-.07,0-.18,0-.21-.05s.08-.12.13-.18.12-.1.23,0,.17.1.14.19-.15,0-.22,0Z" transform="translate(-12.1 -36.65)"/><path class="cls-4" d="M260.39,242.2a2.11,2.11,0,0,1-.5,0c-.05,0-.06,0,0-.08h0C260.07,241.86,260.16,241.87,260.39,242.2Z" transform="translate(-12.1 -36.65)"/><path class="cls-4" d="M272.33,242.21h-.18s-.06,0-.07,0,0-.07,0-.09c.17-.22.31-.21.46,0,0,.05,0,.08,0,.08Z" transform="translate(-12.1 -36.65)"/><path class="cls-4" d="M262.26,242.21h-.19c-.08,0-.09,0,0-.11.17-.22.23-.23.42,0l.06.06s0,.07,0,.07Z" transform="translate(-12.1 -36.65)"/><path class="cls-4" d="M265.84,242.21h-.18c-.07,0-.08,0,0-.1h0c.18-.22.31-.21.47,0,0,.05,0,.08,0,.08Z" transform="translate(-12.1 -36.65)"/><path class="cls-4" d="M255.79,242.21h-.2c-.06,0-.08,0-.05-.09h0c.08-.07.13-.19.23-.18s.18.13.25.21,0,.07,0,.07Z" transform="translate(-12.1 -36.65)"/><path class="cls-4" d="M258.67,242.21h-.2c-.06,0-.08,0-.05-.09h0c.07-.07.12-.19.22-.18s.18.13.25.21,0,.07,0,.07Z" transform="translate(-12.1 -36.65)"/><path class="cls-4" d="M275.91,242.21h-.18c-.07,0-.08,0,0-.1h0c.18-.22.31-.21.47,0,0,.05,0,.08,0,.08Z" transform="translate(-12.1 -36.65)"/><path class="cls-4" d="M266.58,242.21h-.22c-.05,0-.06,0,0-.07l.2-.2a.06.06,0,0,1,.08,0,.87.87,0,0,1,.22.21,0,0,0,0,1,0,.07Z" transform="translate(-12.1 -36.65)"/><path class="cls-4" d="M256.48,242.21c-.06,0-.19,0-.22,0s.09-.14.15-.2.09-.09.19,0l.12.11a.08.08,0,0,1,0,.09s-.05,0-.08,0Z" transform="translate(-12.1 -36.65)"/><path class="cls-4" d="M252.91,242.22h0c-.08,0-.17,0-.23-.05s.18-.24.23-.24a0,0,0,0,1,.05,0,1.47,1.47,0,0,1,.22.21,0,0,0,0,1,0,.07h-.22Z" transform="translate(-12.1 -36.65)"/><path class="cls-4" d="M273,242.21h-.19c-.06,0-.08,0,0-.08a.08.08,0,0,1,0,0c.06-.06.11-.17.2-.16s.17.12.24.2,0,.08,0,.08Z" transform="translate(-12.1 -36.65)"/><path class="cls-4" d="M263,242.22h0c-.08,0-.17,0-.24,0s.19-.24.24-.25a0,0,0,0,1,.05,0,1.1,1.1,0,0,1,.22.21,0,0,0,0,1,0,.07H263Z" transform="translate(-12.1 -36.65)"/><path class="cls-4" d="M121.33,92.85a3.8,3.8,0,0,1,1.06.08,5.31,5.31,0,0,1,1,.29l.08,0s.07,0,.08,0l0-.09a18.26,18.26,0,0,1,.93-1.75,7.75,7.75,0,0,1,1.27-1.64,3.34,3.34,0,0,1,1.33-.82l.26-.06s.06,0,.09,0,0,0,0,.06a7.69,7.69,0,0,0-1.64,2.12,12.67,12.67,0,0,0-1.09,2.77s0,.06,0,.09,0,.07,0,.1l0,0a5.27,5.27,0,0,1,1.79,3,5.23,5.23,0,0,1-.36,3.13,5,5,0,0,1-1.25,1.74,5.12,5.12,0,0,1-1.38.92.18.18,0,0,0-.12.19c0,.26,0,.53,0,.8,0,0,0,.09,0,.11s-.07,0-.09-.06a7,7,0,0,1-.6-.62.23.23,0,0,0-.25-.07,4.92,4.92,0,0,1-1.09.12.23.23,0,0,1-.13,0,5.19,5.19,0,0,0,3.4-1.41,5.11,5.11,0,0,0,1.54-2.7,5.17,5.17,0,0,0-1.6-5s0,0,0,.08a17.55,17.55,0,0,0-.34,2c0,.41-.07.82-.09,1.24s0,1.09,0,1.64c0,.34,0,.69.06,1s0,.64.08,1a.08.08,0,0,1-.06.11l-.77.27c-.06,0-.08,0-.09-.06s0-.29-.08-.44c-.09-.61-.19-1.22-.29-1.83,0-.22-.08-.45-.11-.68s0-.11-.12-.09-.29.07-.44.09-.11,0-.13-.08L121.83,97a.22.22,0,0,1,0-.16,16.16,16.16,0,0,0,.73-1.51c.26-.58.51-1.17.78-1.75.06-.13.06-.13-.07-.19a5.4,5.4,0,0,0-1.58-.45A2.58,2.58,0,0,0,121.33,92.85Zm3.25.42,0,0c-.13.06-.26.12-.38.19s-.06,0,0,.09l.19.29s0,0,.07,0Zm1.14-2.51a2.53,2.53,0,0,0-.36.12s-.06,0,0,.08l.12.34A3.91,3.91,0,0,0,125.72,90.76Zm-1,2.19a1.9,1.9,0,0,0,.21-.56l-.33.16a.06.06,0,0,0,0,.07A2,2,0,0,0,124.69,93Zm.6-1.38v0l-.34.16a.06.06,0,0,0,0,.09l.12.26s0,0,0,0,0,0,0,0C125.16,91.89,125.23,91.73,125.29,91.57Zm-1.08,3.13h0l.15-.5s0,0,0,0,0,0,0,0l-.27.15s0,0,0,.07S124.16,94.59,124.21,94.7Zm-.07.27s0,0,0,0a0,0,0,0,0,0,0l-.23.18s0,.06,0,.1l.18.24s0,0,0,0,0,0,0,0Zm1.68-4.47a1.7,1.7,0,0,0,.3-.51c-.12,0-.23.06-.35.09s0,0,0,.08S125.78,90.38,125.82,90.5Z" transform="translate(-12.1 -36.65)"/><path class="cls-4" d="M120.17,92.59c0,.22,0,.42,0,.62,0,.42,0,.85,0,1.27a10.78,10.78,0,0,0,.19,1.87,3.75,3.75,0,0,0,.2.65,1.22,1.22,0,0,0,.29.42.37.37,0,0,0,.32.1c.11,0,.1,0,.11.1,0,.64,0,1.27,0,1.91v.61c0,.12,0,.13.12.09L122,100c.1,0,.12,0,.13.08,0,.31,0,.63.07.94s.07.79.1,1.19c0,.17,0,.35,0,.52,0,0,0,0,0,0s0,0,0,0l-.37-.45a14.71,14.71,0,0,1-1.11-1.6,10.57,10.57,0,0,1-1.09-2.48,8,8,0,0,1-.31-1.68,7.46,7.46,0,0,1,.29-2.72,7.58,7.58,0,0,1,.44-1.15A.15.15,0,0,1,120.17,92.59Z" transform="translate(-12.1 -36.65)"/><path class="cls-4" d="M133.5,93.75a.58.58,0,0,1,.38.09.5.5,0,0,1,.2.51,1.09,1.09,0,0,1-.24.51,2.76,2.76,0,0,1-.61.57,2.67,2.67,0,0,1-.51.31.85.85,0,0,1-.24.08.21.21,0,0,1-.18-.07.15.15,0,0,1,0-.23.44.44,0,0,1,.18-.12,2.25,2.25,0,0,0,.52-.24,1.87,1.87,0,0,0,.61-.58.6.6,0,0,0,.08-.2.21.21,0,0,0-.21-.27.7.7,0,0,0-.29,0,2.24,2.24,0,0,0-1.24,1,1,1,0,0,0,0,1.07c.13.26.3.49.45.73s.1.17.14.26a.83.83,0,0,1-.15,1,1.63,1.63,0,0,1-1,.48,1.34,1.34,0,0,1-.77-.09.73.73,0,0,1-.5-.69.76.76,0,0,1,.67-.81h.07a.17.17,0,0,1,.18.14.16.16,0,0,1-.1.19l-.2.1a.3.3,0,0,0-.18.26.4.4,0,0,0,.25.46.94.94,0,0,0,.47.06,1.26,1.26,0,0,0,.64-.24.6.6,0,0,0,.19-.73,2.7,2.7,0,0,0-.3-.52,5.39,5.39,0,0,1-.3-.52,1.21,1.21,0,0,1,0-1.11,2.1,2.1,0,0,1,.54-.72,2.77,2.77,0,0,1,.7-.47A1.65,1.65,0,0,1,133.5,93.75Z" transform="translate(-12.1 -36.65)"/><path class="cls-4" d="M137.28,95.73a1.42,1.42,0,0,0,.24,0,5.89,5.89,0,0,1,.94-.12h.15a.16.16,0,0,1,.13.17.18.18,0,0,1-.12.19.64.64,0,0,1-.2,0,5.49,5.49,0,0,0-.9.09l-.4.09a.26.26,0,0,0-.18.13,10.62,10.62,0,0,0-.71,1.53l-.08.21v0a.2.2,0,0,0,.11,0,8.89,8.89,0,0,1,.88-.26,2.43,2.43,0,0,1,.6-.05.45.45,0,0,1,.2,0,.22.22,0,0,1,.12.13.15.15,0,0,1-.09.21.5.5,0,0,1-.17,0,4.22,4.22,0,0,0-.86.11,4.16,4.16,0,0,0-.74.28l-.21.11a.28.28,0,0,1-.39-.3.83.83,0,0,1,.06-.21,7,7,0,0,1,.34-.86,15.14,15.14,0,0,1,1-1.87c.19-.31.39-.62.59-.93l0,0a.07.07,0,0,0,0-.1.08.08,0,0,1,0,0,.21.21,0,0,1,.1-.32,2.7,2.7,0,0,1,.56-.14,9,9,0,0,1,1.16-.14,2,2,0,0,1,.49,0c.12,0,.17.07.18.15a.19.19,0,0,1-.13.22.28.28,0,0,1-.13,0l-.5,0a5.42,5.42,0,0,0-1.06.15.2.2,0,0,0-.11,0s0,.06,0,.09a.24.24,0,0,1,0,.08l-.06.09c-.26.34-.46.73-.7,1.09Z" transform="translate(-12.1 -36.65)"/><path class="cls-4" d="M139.12,97.86a.84.84,0,0,0,.12.45.48.48,0,0,0,.56.19,1.29,1.29,0,0,0,.5-.3,4.26,4.26,0,0,0,.94-1.13s0-.08.08-.1a.09.09,0,0,1,.11,0s.06.06.06.11a.39.39,0,0,1-.06.15,3.84,3.84,0,0,1-.44.69,3.64,3.64,0,0,1-.86.8,1.48,1.48,0,0,1-.61.21.78.78,0,0,1-.8-.5,1.39,1.39,0,0,1-.06-.7,4.09,4.09,0,0,1,.38-1.15,7.68,7.68,0,0,1,1.13-1.69,6,6,0,0,1,.66-.68,1.88,1.88,0,0,1,.53-.35.86.86,0,0,1,.5-.07.41.41,0,0,1,.36.34.94.94,0,0,1,0,.47,2.18,2.18,0,0,1-.25.59,3.13,3.13,0,0,1-.53.67.46.46,0,0,1-.18.13.19.19,0,0,1-.24-.06.17.17,0,0,1,0-.22.72.72,0,0,1,.22-.24,2.07,2.07,0,0,0,.64-.77,1.34,1.34,0,0,0,.09-.26c0-.11,0-.23-.07-.3a.26.26,0,0,0-.29,0,2,2,0,0,0-.52.35,7,7,0,0,0-1.31,1.6,4.51,4.51,0,0,0-.59,1.35A3.68,3.68,0,0,0,139.12,97.86Z" transform="translate(-12.1 -36.65)"/><path class="cls-4" d="M121.16,103.33a4,4,0,0,1-.91-.06,5.26,5.26,0,0,1-1.67-9.81,5.4,5.4,0,0,1,.74-.33h0s.07,0,.08,0,0,.07,0,.1l-.07,0a4.71,4.71,0,0,0-1.13.66,5.17,5.17,0,0,0-2,3.37,4.46,4.46,0,0,0-.05.63,4.76,4.76,0,0,0,.13,1.36,5.11,5.11,0,0,0,.63,1.55,5.25,5.25,0,0,0,1,1.17,5,5,0,0,0,1.59,1,5.19,5.19,0,0,0,1.45.34Z" transform="translate(-12.1 -36.65)"/><path class="cls-4" d="M133.51,98.15,134,98a2.59,2.59,0,0,1,.56,0,.67.67,0,0,1,.31.07.2.2,0,0,1,.12.28.17.17,0,0,1-.19.12l-.24,0a1.23,1.23,0,0,0-.57,0c-.18,0-.36.1-.54.15l-.23.06a.26.26,0,0,1-.29-.11.3.3,0,0,1,0-.33.4.4,0,0,1,.1-.12,10.17,10.17,0,0,1,.91-.83c.4-.33.82-.63,1.22-1a1.34,1.34,0,0,0,.27-.26.52.52,0,0,0,.12-.36.27.27,0,0,0-.26-.27.74.74,0,0,0-.41.1,4.27,4.27,0,0,0-.41.29l-.14.11c-.08,0-.11,0-.17,0a.13.13,0,0,1,0-.19,1,1,0,0,1,.16-.2,2,2,0,0,1,.75-.44,1.19,1.19,0,0,1,.46,0,.59.59,0,0,1,.51.72,1.16,1.16,0,0,1-.34.61,3.89,3.89,0,0,1-.49.42c-.39.29-.78.59-1.16.9A3.58,3.58,0,0,0,133.51,98.15Z" transform="translate(-12.1 -36.65)"/><path class="cls-4" d="M128.16,98.13a.2.2,0,0,0,.11,0c.31-.09.61-.17.92-.23l.21,0h.19a.2.2,0,0,1,.16.21.19.19,0,0,1-.16.2h-.13a1.38,1.38,0,0,0-.57,0c-.18,0-.35.13-.53.2a1.45,1.45,0,0,1-.35.12h-.15a.26.26,0,0,1-.23-.24.66.66,0,0,1,0-.24,7.6,7.6,0,0,1,.56-1.23,19.91,19.91,0,0,1,1.4-2.12c.2-.27.38-.53.58-.79a.44.44,0,0,1,.15-.12.15.15,0,0,1,.19,0,.13.13,0,0,1,.05.19,1.22,1.22,0,0,1-.17.29c-.27.42-.56.82-.86,1.22a13.33,13.33,0,0,0-1.2,1.94c-.07.15-.13.31-.19.48A.11.11,0,0,0,128.16,98.13Z" transform="translate(-12.1 -36.65)"/><path class="cls-4" d="M120.61,95.11a1.65,1.65,0,0,1,.25-.9,1.1,1.1,0,0,1,.34-.34.52.52,0,0,1,.69.09,1,1,0,0,1,.25.53,1.7,1.7,0,0,1-.27,1.24.86.86,0,0,1-.42.33.54.54,0,0,1-.62-.2,1.16,1.16,0,0,1-.22-.66Z" transform="translate(-12.1 -36.65)"/><path class="cls-4" d="M137.72,100.87a3.47,3.47,0,0,0-.38.61,4.9,4.9,0,0,0-.42,1,.52.52,0,0,1-.07.15.14.14,0,0,1-.16.06c-.05,0-.07-.07-.06-.14a1.17,1.17,0,0,1,.06-.2,8.38,8.38,0,0,1,.62-1.19c.13-.21.26-.43.4-.64a.91.91,0,0,1,.18-.21.21.21,0,0,1,.1-.06.1.1,0,0,1,.13.13c0,.1-.06.19-.09.29a6.93,6.93,0,0,0-.22,1.26V102s0,0,0,0,.08-.17.12-.24a12,12,0,0,1,.73-1.48l.08-.12a.2.2,0,0,1,.14-.08c.07,0,.11,0,.09.11a.53.53,0,0,1-.08.17,9.81,9.81,0,0,0-.56,1,6.91,6.91,0,0,0-.35.85,2.6,2.6,0,0,1-.1.25.37.37,0,0,1-.12.13.14.14,0,0,1-.21-.09s0-.06,0-.09a5.17,5.17,0,0,1,0-.68C137.61,101.46,137.67,101.17,137.72,100.87Z" transform="translate(-12.1 -36.65)"/><path class="cls-4" d="M135.15,100.87a5.66,5.66,0,0,0-.62,1.1,3.8,3.8,0,0,0-.18.47.84.84,0,0,1-.06.14.12.12,0,0,1-.07.07c-.09,0-.16,0-.16-.09a.76.76,0,0,1,0-.16,5.42,5.42,0,0,1,.32-.69c.22-.41.47-.81.72-1.2a.87.87,0,0,1,.17-.21l.07-.06a.12.12,0,0,1,.18.14,3.37,3.37,0,0,0-.15.48,6,6,0,0,0-.16,1,.34.34,0,0,0,0,.1,3.23,3.23,0,0,0,.2-.42,12.82,12.82,0,0,1,.65-1.28l.08-.12.07-.06a.12.12,0,0,1,.14,0c.05,0,0,.08,0,.13a1.4,1.4,0,0,1-.1.16,9,9,0,0,0-.9,1.84.92.92,0,0,1-.09.23.26.26,0,0,1-.14.13.13.13,0,0,1-.17-.08.27.27,0,0,1,0-.12,5,5,0,0,1,0-.67A8.68,8.68,0,0,1,135.15,100.87Z" transform="translate(-12.1 -36.65)"/><path class="cls-4" d="M139.2,102.34a.19.19,0,0,0-.12,0,.36.36,0,0,1-.57-.33,1.08,1.08,0,0,1,.11-.5,3.22,3.22,0,0,1,.55-.81,2.38,2.38,0,0,1,.53-.47.66.66,0,0,1,.24-.11.29.29,0,0,1,.38.27.7.7,0,0,1-.09.4,2,2,0,0,1-.37.44l-.14.08a.12.12,0,0,1-.15,0,.1.1,0,0,1,0-.14.57.57,0,0,1,.11-.11,1.59,1.59,0,0,0,.37-.45.47.47,0,0,0,.06-.15c0-.08,0-.12-.1-.1a.49.49,0,0,0-.2.11,2.53,2.53,0,0,0-.42.38,3.44,3.44,0,0,0-.59.92.54.54,0,0,0,0,.28.15.15,0,0,0,.17.15.44.44,0,0,0,.17-.07,2.18,2.18,0,0,0,.34-.26l.14-.11a.09.09,0,0,1,.12,0,.09.09,0,0,1,0,.11.46.46,0,0,1-.07.16,5.28,5.28,0,0,0-.5.94,1.42,1.42,0,0,0-.07.22.3.3,0,0,0,0,.1.13.13,0,0,1-.14.06.12.12,0,0,1-.1-.1.46.46,0,0,1,0-.2,2.67,2.67,0,0,1,.2-.46Z" transform="translate(-12.1 -36.65)"/><path class="cls-4" d="M132.93,101.57a.27.27,0,0,0-.13,0l-.35.1a.19.19,0,0,0-.15.11c-.14.23-.29.46-.42.69a.71.71,0,0,1-.1.14.11.11,0,0,1-.13,0c-.05,0-.06-.07-.06-.12s0-.07,0-.11.17-.28.25-.42a1.27,1.27,0,0,0,.07-.12.18.18,0,0,0-.11,0,.11.11,0,0,1-.14-.05.14.14,0,0,1,.05-.16l.11,0,.26-.1a.2.2,0,0,0,.12-.08,10.77,10.77,0,0,1,.73-.91,2.34,2.34,0,0,1,.32-.31l.06,0a.17.17,0,0,1,.18,0,.16.16,0,0,1,.05.16,1.42,1.42,0,0,1-.05.16,4.21,4.21,0,0,0-.2.63c0,.09,0,.09.06.11s.11,0,.12.09a.14.14,0,0,1-.09.14h-.09c-.09,0-.09,0-.11.1a4.52,4.52,0,0,0-.11.53,2.7,2.7,0,0,0-.05.41h0c0,.09,0,.13-.1.14a.15.15,0,0,1-.14-.11.45.45,0,0,1,0-.2,4.87,4.87,0,0,1,.1-.65A.68.68,0,0,0,132.93,101.57Zm-.33-.2a1.9,1.9,0,0,0,.36-.08s.06-.05.07-.09.08-.22.11-.33a.78.78,0,0,0,.07-.23A4.72,4.72,0,0,0,132.6,101.37Z" transform="translate(-12.1 -36.65)"/><path class="cls-4" d="M130.74,101.8s0,0,0,0c-.1.22-.2.43-.29.66l0,.08a.13.13,0,0,1-.16.06.11.11,0,0,1-.07-.14,1.21,1.21,0,0,1,.05-.18,6.36,6.36,0,0,1,.33-.7.42.42,0,0,0,0-.2c0-.12,0-.14.13-.18a.07.07,0,0,0,.06,0c.08-.14.16-.27.23-.41s0-.06,0-.1a.1.1,0,0,1,0-.14.27.27,0,0,1,.15-.13.29.29,0,0,0,.15-.16.12.12,0,0,1,.18,0,.2.2,0,0,0,.15,0,.57.57,0,0,1,.29,0,.41.41,0,0,1,.32.48.85.85,0,0,1-.37.58,1.4,1.4,0,0,1-.79.28c-.11,0-.12,0-.07.12s.23.5.36.74a.18.18,0,0,1,0,.09.13.13,0,0,1,0,.15.12.12,0,0,1-.16,0,.75.75,0,0,1-.09-.15c-.09-.21-.18-.41-.28-.61C130.76,101.83,130.76,101.81,130.74,101.8Zm1-1.35a1,1,0,0,0-.24,0,.22.22,0,0,0-.13.12c-.06.11-.12.22-.17.33s-.1.18-.14.27,0,.07,0,.07h.06a1.11,1.11,0,0,0,.66-.34.46.46,0,0,0,.15-.27.14.14,0,0,0-.08-.19A.4.4,0,0,0,131.72,100.45Z" transform="translate(-12.1 -36.65)"/><path class="cls-4" d="M129.78,100.54a.17.17,0,0,0-.1,0,3,3,0,0,0-.41.09.17.17,0,0,1-.12,0,.1.1,0,0,1-.11-.07.12.12,0,0,1,0-.14.22.22,0,0,1,.11,0,6.62,6.62,0,0,1,1.16-.23H131a.11.11,0,0,1,.08.1.1.1,0,0,1-.07.1.19.19,0,0,1-.1,0l-.65,0c-.08,0-.14,0-.17.1a1.28,1.28,0,0,1-.17.3,8.54,8.54,0,0,0-.76,1.51,1.55,1.55,0,0,0-.07.23s0,.1-.11.1a.15.15,0,0,1-.13-.11.28.28,0,0,1,0-.18,4.34,4.34,0,0,1,.2-.5c.14-.3.31-.59.48-.88l.23-.41A.07.07,0,0,0,129.78,100.54Z" transform="translate(-12.1 -36.65)"/><path class="cls-4" d="M135.88,102.41s0-.08,0-.12a2.76,2.76,0,0,1,.26-.65c.19-.33.37-.66.57-1,.08-.13.17-.25.26-.37l.06-.05a.09.09,0,0,1,.11,0,.14.14,0,0,1,.08.13.36.36,0,0,1,0,.09l-.12.19a9.9,9.9,0,0,0-.69,1.12,2.87,2.87,0,0,0-.25.67l0,.08a.11.11,0,0,1-.12.08c-.05,0-.09,0-.1-.11A.09.09,0,0,1,135.88,102.41Z" transform="translate(-12.1 -36.65)"/><path class="cls-4" d="M133.31,102.42a1,1,0,0,1,0-.19,4.55,4.55,0,0,1,.27-.64c.19-.31.36-.63.55-.93a2.36,2.36,0,0,1,.26-.36l.05-.06a.11.11,0,0,1,.13,0,.12.12,0,0,1,.06.14.2.2,0,0,1,0,.08,1.74,1.74,0,0,1-.11.18,8.29,8.29,0,0,0-.7,1.14,3,3,0,0,0-.24.65l0,.08a.11.11,0,0,1-.12.08s-.08,0-.1-.09A.18.18,0,0,1,133.31,102.42Z" transform="translate(-12.1 -36.65)"/><path class="cls-4" d="M126.84,99.44a.63.63,0,0,1,.15-.17s.05,0,.06,0l.14.12s0,0,0,0A1.71,1.71,0,0,1,126.84,99.44Z" transform="translate(-12.1 -36.65)"/><path class="cls-4" d="M137.38,99.44a1.14,1.14,0,0,1-.32,0s0,0,0,0h0C137.18,99.22,137.25,99.23,137.38,99.44Z" transform="translate(-12.1 -36.65)"/><path class="cls-4" d="M142,99.44a1.14,1.14,0,0,1-.32,0s0,0,0,0h0C141.8,99.22,141.87,99.23,142,99.44Z" transform="translate(-12.1 -36.65)"/><path class="cls-4" d="M128.6,99.44a1.14,1.14,0,0,1-.32,0s0,0,0,0l0,0C128.4,99.22,128.45,99.23,128.6,99.44Z" transform="translate(-12.1 -36.65)"/><path class="cls-4" d="M129.07,99.44a2.41,2.41,0,0,1-.38,0,.71.71,0,0,1,.16-.18s.05,0,.07,0A.79.79,0,0,1,129.07,99.44Z" transform="translate(-12.1 -36.65)"/><path class="cls-4" d="M129.15,99.44a.57.57,0,0,1,.14-.16.06.06,0,0,1,.09,0,.57.57,0,0,1,.11.11s0,0,0,0A1.82,1.82,0,0,1,129.15,99.44Z" transform="translate(-12.1 -36.65)"/><path class="cls-4" d="M130.92,99.44a2.41,2.41,0,0,1-.38,0,.63.63,0,0,1,.15-.17,0,0,0,0,1,.07,0A1.36,1.36,0,0,1,130.92,99.44Z" transform="translate(-12.1 -36.65)"/><path class="cls-4" d="M131.38,99.44a2.28,2.28,0,0,1-.37,0,.54.54,0,0,1,.15-.18s.05,0,.07,0A.79.79,0,0,1,131.38,99.44Z" transform="translate(-12.1 -36.65)"/><path class="cls-4" d="M135.07,99.44a1.14,1.14,0,0,1-.32,0s0,0,0,0l0,0C134.87,99.22,134.92,99.23,135.07,99.44Z" transform="translate(-12.1 -36.65)"/><path class="cls-4" d="M135.52,99.44h-.31s0,0,0,0v0C135.33,99.22,135.41,99.23,135.52,99.44Z" transform="translate(-12.1 -36.65)"/><path class="cls-4" d="M136,99.44a2.16,2.16,0,0,1-.36,0,.4.4,0,0,1,.16-.18s0,0,.05,0A.63.63,0,0,1,136,99.44Z" transform="translate(-12.1 -36.65)"/><path class="cls-4" d="M137.83,99.43a.15.15,0,0,1-.09,0h-.26a.38.38,0,0,1,.16-.19s0,0,.05,0A.44.44,0,0,1,137.83,99.43Z" transform="translate(-12.1 -36.65)"/><path class="cls-4" d="M137.94,99.44a.14.14,0,0,1,0-.07c.13-.14.18-.14.3,0s0,0,0,0A1.14,1.14,0,0,1,137.94,99.44Z" transform="translate(-12.1 -36.65)"/><path class="cls-4" d="M138.57,99.45h-.1c-.06,0-.07,0,0-.07s.08-.12.15-.12.11.08.16.13,0,0,0,0Z" transform="translate(-12.1 -36.65)"/><path class="cls-4" d="M139.23,99.44a1.14,1.14,0,0,1-.32,0s0,0,0,0l0,0C139,99.22,139.09,99.23,139.23,99.44Z" transform="translate(-12.1 -36.65)"/><path class="cls-4" d="M139.69,99.44a1.71,1.71,0,0,1-.32,0s0,0,0,0a.8.8,0,0,1,.13-.13,0,0,0,0,1,.06,0A.63.63,0,0,1,139.69,99.44Z" transform="translate(-12.1 -36.65)"/><path class="cls-4" d="M139.79,99.44a.14.14,0,0,1,0-.07c.13-.14.18-.14.3,0s0,0,0,0A1.14,1.14,0,0,1,139.79,99.44Z" transform="translate(-12.1 -36.65)"/><path class="cls-4" d="M141.54,99.44a1.82,1.82,0,0,1-.33,0s0,0,0,0l.12-.12a0,0,0,0,1,.07,0A.63.63,0,0,1,141.54,99.44Z" transform="translate(-12.1 -36.65)"/><path class="cls-4" d="M133.31,99.44a.63.63,0,0,1,.15-.17s0,0,.07,0a1.59,1.59,0,0,1,.13.13s0,0,0,0A1.76,1.76,0,0,1,133.31,99.44Z" transform="translate(-12.1 -36.65)"/><path class="cls-4" d="M142.46,99.44a2.29,2.29,0,0,1-.37,0,1,1,0,0,1,.16-.18.06.06,0,0,1,.06,0A.63.63,0,0,1,142.46,99.44Z" transform="translate(-12.1 -36.65)"/><path class="cls-4" d="M132.86,99.43c.18-.23.17-.23.35,0A.68.68,0,0,1,132.86,99.43Z" transform="translate(-12.1 -36.65)"/><path class="cls-4" d="M132.11,99.45H132s0,0,0,0h0s.08-.13.15-.12.11.08.16.14,0,0,0,0Z" transform="translate(-12.1 -36.65)"/><path class="cls-4" d="M127.49,99.45h0s-.11,0-.13,0,0-.08.08-.11.08-.07.15,0,.11.06.09.12-.09,0-.14,0Z" transform="translate(-12.1 -36.65)"/><path class="cls-4" d="M132.76,99.44a1.14,1.14,0,0,1-.32,0s0,0,0,0h0C132.55,99.22,132.61,99.23,132.76,99.44Z" transform="translate(-12.1 -36.65)"/><path class="cls-4" d="M140.43,99.45h-.11s0,0,0,0,0,0,0-.06.2-.13.3,0,0,0,0,0Z" transform="translate(-12.1 -36.65)"/><path class="cls-4" d="M134,99.45h-.12c-.05,0-.06,0,0-.07s.15-.15.27,0a.08.08,0,0,1,0,0s0,0,0,0a.66.66,0,0,1-.14,0Z" transform="translate(-12.1 -36.65)"/><path class="cls-4" d="M136.26,99.45h-.11q-.08,0,0-.06h0c.11-.14.2-.13.3,0s0,0,0,0Z" transform="translate(-12.1 -36.65)"/><path class="cls-4" d="M129.8,99.45h-.13s0,0,0,0h0s.08-.12.15-.12.11.08.16.14,0,0,0,0Z" transform="translate(-12.1 -36.65)"/><path class="cls-4" d="M131.65,99.45h-.13s-.05,0,0,0h0c.05,0,.08-.12.15-.12s.11.08.16.14,0,0,0,0Z" transform="translate(-12.1 -36.65)"/><path class="cls-4" d="M142.74,99.45h-.12q-.08,0,0-.06h0c.11-.14.2-.13.3,0s0,0,0,0Z" transform="translate(-12.1 -36.65)"/><path class="cls-4" d="M136.73,99.44a.65.65,0,0,1-.14,0s0,0,0,0l.12-.13s0,0,.05,0a.35.35,0,0,1,.14.13s0,0,0,0a.65.65,0,0,1-.14,0Z" transform="translate(-12.1 -36.65)"/><path class="cls-4" d="M130.24,99.45s-.12,0-.13,0,0-.09.09-.13.06-.06.12,0a.27.27,0,0,1,.08.07s0,0,0,0,0,0-.06,0Z" transform="translate(-12.1 -36.65)"/><path class="cls-4" d="M128,99.45h0s-.11,0-.15,0a.55.55,0,0,1,.15-.16h0a.86.86,0,0,1,.14.13s0,0,0,0a.66.66,0,0,1-.14,0Z" transform="translate(-12.1 -36.65)"/><path class="cls-4" d="M140.89,99.45h-.12c-.05,0-.05,0,0-.06l0,0c.05,0,.08-.12.13-.11s.11.08.16.13a0,0,0,0,1,0,0,.65.65,0,0,1-.14,0Z" transform="translate(-12.1 -36.65)"/><path class="cls-4" d="M134.42,99.45h0s-.11,0-.15,0a.55.55,0,0,1,.15-.16h0a.93.93,0,0,1,.14.14s0,0,0,0a.65.65,0,0,1-.14,0Z" transform="translate(-12.1 -36.65)"/></svg>